<svg xmlns="http://www.w3.org/2000/svg" width="100" height="100" viewBox="0 0 1334 1534" stroke-linejoin="round"><style>.a{fill:#ef334c;}</style><path d="M15 374l637-368c8-5 19-5 28 0l637 368c8 5 14 14 14 24l0 736c0 10-5 19-14 24l-637 368c-8 5-19 5-28 0l-637-368c-8-5-14-14-14-24l0-736c0-10 5-19 14-24Z" class="a"/><path d="M98 424l556-321c7-4 17-4 24 0l556 321c7 4 12 12 12 21l0 642c0 9-5 17-12 21l-556 321c-7 4-17 4-24 0l-556-321c-7-4-12-12-12-21l0-642c0-9 4-16 12-21Z" fill="#343b45"/><path d="M666 1078l242 219c0 0 269-155 327-189 7-4 11-11 11-19 0-54 0-261 0-261l-321-298 -259 548Z" fill="#262b33"/><path d="M980 636c-8-83-78-147-163-147 -68 0-126 41-151 100 -25-59-83-100-151-100 -85 0-155 64-163 147 -1 6-1 11-1 17 0 199 244 293 315 426 71-133 315-227 315-426 0-6 0-11-1-17Z" class="a"/></svg>